<svg width="271" height="49" viewBox="0 0 271 49" fill="none" xmlns="http://www.w3.org/2000/svg">
<path d="M38.9062 0C42.3242 0.839844 44.9902 1.875 46.9043 3.10547C49.4824 4.76563 51.4355 6.79688 52.7637 9.19922C54.1113 11.6016 54.7852 14.1602 54.7852 16.875C54.7852 18.7891 54.4531 20.6934 53.7891 22.5879C53.1445 24.4824 52.0801 26.5723 50.5957 28.8574C50.0684 29.6777 47.5098 33.1445 42.9199 39.2578C45.2637 38.2227 47.6172 37.7051 49.9805 37.7051C50.9961 37.7051 51.8555 37.7832 52.5586 37.9395C53.2812 38.0762 53.8281 38.1445 54.1992 38.1445C54.5312 38.1445 54.834 37.998 55.1074 37.7051C55.4004 37.3926 56.0352 36.2988 57.0117 34.4238L58.418 34.9512L53.3789 44.3848C50.7227 43.4863 48.5254 43.0371 46.7871 43.0371C44.8145 43.0371 43.1934 43.418 41.9238 44.1797C40.6543 44.9414 39.4238 46.2695 38.2324 48.1641L37.0605 47.5781C37.7246 45.5859 38.916 43.1055 40.6348 40.1367C43.4668 35.2734 45.5859 31.2891 46.9922 28.1836C45.2148 27.0117 43.5938 26.1816 42.1289 25.6934C40.6641 25.1855 39.1113 24.9316 37.4707 24.9316C36.1035 24.9316 34.8145 25.1074 33.6035 25.459C32.4121 25.791 31.0059 26.4062 29.3848 27.3047V32.4609C29.3848 35.6055 29.2188 37.8516 28.8867 39.1992C28.5742 40.5469 27.8516 41.9238 26.7188 43.3301C25.6055 44.7168 24.1602 45.8691 22.3828 46.7871C20.625 47.7246 18.7988 48.1934 16.9043 48.1934C16.1426 48.1934 15.3906 48.1152 14.6484 47.959C14.2188 47.8809 12.9883 47.5391 10.957 46.9336C8.94531 46.3477 7.8125 46.0254 7.55859 45.9668C7.01172 45.8691 6.42578 45.8203 5.80078 45.8203C4.88281 45.8203 4.0625 45.9473 3.33984 46.2012C2.63672 46.4551 1.79688 46.9141 0.820312 47.5781L0 46.8457C1.99219 43.3105 4.69727 41.543 8.11523 41.543C9.50195 41.543 11.2988 41.7871 13.5059 42.2754C14.8535 42.5684 15.7715 42.7148 16.2598 42.7148C17.3145 42.7148 18.2227 42.2949 18.9844 41.4551C19.7461 40.5957 20.127 39.4922 20.127 38.1445C20.127 36.4258 19.5312 34.9805 18.3398 33.8086C17.168 32.6367 15.7227 32.0508 14.0039 32.0508C12.8711 32.0508 11.6602 32.5293 10.3711 33.4863L9.55078 32.7539C10.4297 31.6602 11.2988 30.8789 12.1582 30.4102C13.0176 29.9219 13.9844 29.6777 15.0586 29.6777C15.6836 29.6777 16.3281 29.7852 16.9922 30C17.6758 30.2148 18.3789 30.5371 19.1016 30.9668C18.7695 29.248 18.1836 27.9297 17.3438 27.0117C15.8789 25.4102 14.043 24.6094 11.8359 24.6094C10.8984 24.6094 10.127 24.707 9.52148 24.9023C9.05273 25.0586 8.4668 25.4004 7.76367 25.9277L7.06055 24.9023C8.11523 23.8281 9.08203 23.0859 9.96094 22.6758C10.8398 22.2461 11.8066 22.0312 12.8613 22.0312C13.7598 22.0312 14.5898 22.168 15.3516 22.4414C16.1133 22.6953 17.1387 23.252 18.4277 24.1113C18.4277 22.5293 18.1641 21.2793 17.6367 20.3613C17.1289 19.4238 16.2207 18.5742 14.9121 17.8125C13.623 17.0508 12.3633 16.6699 11.1328 16.6699C10.0195 16.6699 8.89648 17.0605 7.76367 17.8418L7.06055 16.875C7.93945 15.918 8.75977 15.2637 9.52148 14.9121C10.4785 14.4238 11.5137 14.1797 12.627 14.1797C13.584 14.1797 14.4727 14.3262 15.293 14.6191C16.1133 14.8926 17.1582 15.4492 18.4277 16.2891V9.75586L38.9062 0ZM29.3848 15.7617C31.2402 16.8359 32.8418 17.5879 34.1895 18.0176C35.5371 18.4277 36.9434 18.6328 38.4082 18.6328C40.0684 18.6328 41.6406 18.3691 43.125 17.8418C44.6289 17.3145 46.377 16.377 48.3691 15.0293C47.2754 12.2363 45.4199 10 42.8027 8.32031C40.1855 6.62109 37.2461 5.77148 33.9844 5.77148C32.5977 5.77148 31.0645 6.02539 29.3848 6.5332V15.7617ZM28.0371 6.94336L24.4629 8.70117V33.9258C24.4629 36.8555 24.1699 38.9453 23.584 40.1953C22.998 41.4453 21.8652 42.6465 20.1855 43.7988C22.1973 43.6426 23.6523 43.2422 24.5508 42.5977C25.8789 41.6602 26.7871 40.5176 27.2754 39.1699C27.7832 37.8027 28.0371 35.4785 28.0371 32.1973V6.94336ZM29.3848 25.7227C31.1035 24.9023 32.5586 24.3359 33.75 24.0234C34.9609 23.7109 36.2598 23.5547 37.6465 23.5547C39.4043 23.5547 41.0352 23.8086 42.5391 24.3164C44.0625 24.8242 45.7031 25.6738 47.4609 26.8652C48.0078 25.4785 48.418 24.1504 48.6914 22.8809C48.9648 21.6113 49.1016 20.4004 49.1016 19.248C49.1016 18.4277 48.9941 17.5 48.7793 16.4648C46.6309 17.832 44.7949 18.7695 43.2715 19.2773C41.7676 19.7852 40.1953 20.0391 38.5547 20.0391C37.1289 20.0391 35.7227 19.8438 34.3359 19.4531C32.9492 19.043 31.2988 18.3301 29.3848 17.3145V25.7227ZM84.1992 17.4316V39.3457C81.2695 40.5371 79.1504 41.5137 77.8418 42.2754C76.8457 42.8418 75.8887 43.5449 74.9707 44.3848C72.1387 42.666 69.7949 41.4746 67.9395 40.8105C66.5332 40.3027 64.9414 40.0098 63.1641 39.9316L62.8711 39.3457C63.6133 38.7207 64.082 38.1543 64.2773 37.6465C64.5508 36.9824 64.6875 35.8594 64.6875 34.2773V18.1934C68.2617 17.002 71.3184 15.3223 73.8574 13.1543C76.6309 14.9902 80.0781 16.416 84.1992 17.4316ZM70.6055 36.5039L78.252 39.6387V21.0059C75.8496 19.8926 74.1504 19.1602 73.1543 18.8086C72.4512 18.5547 71.6016 18.3398 70.6055 18.1641V36.5039ZM89.0918 16.377L97.2656 6.26953H98.1152L97.8223 14.3555H103.711V17.666H97.8223V37.3828L101.104 39.8145L102.979 38.3496L103.711 39.2285L97.2656 44.3848C95.0586 42.1387 92.5586 40.6152 89.7656 39.8145V39.2285C90.5469 38.7012 91.0645 38.1543 91.3184 37.5879C91.6504 36.8652 91.8164 35.8203 91.8164 34.4531V17.666H89.0918V16.377ZM158.613 0C162.031 0.839844 164.697 1.875 166.611 3.10547C169.189 4.76563 171.143 6.79688 172.471 9.19922C173.818 11.6016 174.492 14.1602 174.492 16.875C174.492 18.7891 174.16 20.6934 173.496 22.5879C172.852 24.4824 171.787 26.5723 170.303 28.8574C169.775 29.6777 167.217 33.1445 162.627 39.2578C164.971 38.2227 167.324 37.7051 169.688 37.7051C170.703 37.7051 171.562 37.7832 172.266 37.9395C172.988 38.0762 173.535 38.1445 173.906 38.1445C174.238 38.1445 174.541 37.998 174.814 37.7051C175.107 37.3926 175.742 36.2988 176.719 34.4238L178.125 34.9512L173.086 44.3848C170.43 43.4863 168.232 43.0371 166.494 43.0371C164.521 43.0371 162.9 43.418 161.631 44.1797C160.361 44.9414 159.131 46.2695 157.939 48.1641L156.768 47.5781C157.432 45.5859 158.623 43.1055 160.342 40.1367C163.174 35.2734 165.293 31.2891 166.699 28.1836C164.922 27.0117 163.301 26.1816 161.836 25.6934C160.371 25.1855 158.818 24.9316 157.178 24.9316C155.811 24.9316 154.521 25.1074 153.311 25.459C152.119 25.791 150.713 26.4062 149.092 27.3047V32.4609C149.092 35.6055 148.926 37.8516 148.594 39.1992C148.281 40.5469 147.559 41.9238 146.426 43.3301C145.312 44.7168 143.867 45.8691 142.09 46.7871C140.332 47.7246 138.506 48.1934 136.611 48.1934C135.85 48.1934 135.098 48.1152 134.355 47.959C133.926 47.8809 132.695 47.5391 130.664 46.9336C128.652 46.3477 127.52 46.0254 127.266 45.9668C126.719 45.8691 126.133 45.8203 125.508 45.8203C124.59 45.8203 123.77 45.9473 123.047 46.2012C122.344 46.4551 121.504 46.9141 120.527 47.5781L119.707 46.8457C121.699 43.3105 124.404 41.543 127.822 41.543C129.209 41.543 131.006 41.7871 133.213 42.2754C134.561 42.5684 135.479 42.7148 135.967 42.7148C137.021 42.7148 137.93 42.2949 138.691 41.4551C139.453 40.5957 139.834 39.4922 139.834 38.1445C139.834 36.4258 139.238 34.9805 138.047 33.8086C136.875 32.6367 135.43 32.0508 133.711 32.0508C132.578 32.0508 131.367 32.5293 130.078 33.4863L129.258 32.7539C130.137 31.6602 131.006 30.8789 131.865 30.4102C132.725 29.9219 133.691 29.6777 134.766 29.6777C135.391 29.6777 136.035 29.7852 136.699 30C137.383 30.2148 138.086 30.5371 138.809 30.9668C138.477 29.248 137.891 27.9297 137.051 27.0117C135.586 25.4102 133.75 24.6094 131.543 24.6094C130.605 24.6094 129.834 24.707 129.229 24.9023C128.76 25.0586 128.174 25.4004 127.471 25.9277L126.768 24.9023C127.822 23.8281 128.789 23.0859 129.668 22.6758C130.547 22.2461 131.514 22.0312 132.568 22.0312C133.467 22.0312 134.297 22.168 135.059 22.4414C135.82 22.6953 136.846 23.252 138.135 24.1113C138.135 22.5293 137.871 21.2793 137.344 20.3613C136.836 19.4238 135.928 18.5742 134.619 17.8125C133.33 17.0508 132.07 16.6699 130.84 16.6699C129.727 16.6699 128.604 17.0605 127.471 17.8418L126.768 16.875C127.646 15.918 128.467 15.2637 129.229 14.9121C130.186 14.4238 131.221 14.1797 132.334 14.1797C133.291 14.1797 134.18 14.3262 135 14.6191C135.82 14.8926 136.865 15.4492 138.135 16.2891V9.75586L158.613 0ZM149.092 15.7617C150.947 16.8359 152.549 17.5879 153.896 18.0176C155.244 18.4277 156.65 18.6328 158.115 18.6328C159.775 18.6328 161.348 18.3691 162.832 17.8418C164.336 17.3145 166.084 16.377 168.076 15.0293C166.982 12.2363 165.127 10 162.51 8.32031C159.893 6.62109 156.953 5.77148 153.691 5.77148C152.305 5.77148 150.771 6.02539 149.092 6.5332V15.7617ZM147.744 6.94336L144.17 8.70117V33.9258C144.17 36.8555 143.877 38.9453 143.291 40.1953C142.705 41.4453 141.572 42.6465 139.893 43.7988C141.904 43.6426 143.359 43.2422 144.258 42.5977C145.586 41.6602 146.494 40.5176 146.982 39.1699C147.49 37.8027 147.744 35.4785 147.744 32.1973V6.94336ZM149.092 25.7227C150.811 24.9023 152.266 24.3359 153.457 24.0234C154.668 23.7109 155.967 23.5547 157.354 23.5547C159.111 23.5547 160.742 23.8086 162.246 24.3164C163.77 24.8242 165.41 25.6738 167.168 26.8652C167.715 25.4785 168.125 24.1504 168.398 22.8809C168.672 21.6113 168.809 20.4004 168.809 19.248C168.809 18.4277 168.701 17.5 168.486 16.4648C166.338 17.832 164.502 18.7695 162.979 19.2773C161.475 19.7852 159.902 20.0391 158.262 20.0391C156.836 20.0391 155.43 19.8438 154.043 19.4531C152.656 19.043 151.006 18.3301 149.092 17.3145V25.7227ZM195.41 13.1543L203.672 22.793L190.547 31.9922V37.3242L197.344 40.0195L201.943 36.8848L202.588 37.7637L193.096 44.3848C191.162 43.3496 189.57 42.6074 188.32 42.1582C187.07 41.709 185.293 41.2402 182.988 40.752V40.0195C183.652 39.6289 184.092 39.1504 184.307 38.584C184.541 37.998 184.658 36.748 184.658 34.834V18.0762C186.494 17.4121 188.018 16.8066 189.229 16.2598C190.107 15.8496 192.168 14.8145 195.41 13.1543ZM190.957 16.5234L190.547 16.7285V30L198.252 24.6094L190.957 16.5234ZM229.014 20.2148L237.715 13.1543C239.531 14.4629 240.713 15.625 241.26 16.6406C242.021 18.0078 242.402 19.5996 242.402 21.416V39.1699C240.352 39.8145 238.623 40.5273 237.217 41.3086C235.811 42.0898 234.385 43.1152 232.939 44.3848C229.639 42.2949 226.885 41.25 224.678 41.25C222.607 41.25 220.537 42.2949 218.467 44.3848C216.533 42.7832 214.678 41.6309 212.9 40.9277C211.143 40.2051 209.219 39.7852 207.129 39.668V38.9648C208.008 38.6133 208.623 38.1152 208.975 37.4707C209.346 36.8066 209.531 35.5273 209.531 33.6328V22.5293C209.531 20.791 209.473 19.7363 209.355 19.3652C209.258 18.9746 208.945 18.4766 208.418 17.8711C207.578 16.8945 207.012 16.0645 206.719 15.3809C206.426 14.6777 206.279 13.877 206.279 12.9785C206.279 11.3379 206.787 9.90234 207.803 8.67188C208.818 7.42187 210.605 6.17188 213.164 4.92188L213.691 5.68359C211.582 7.14844 210.527 8.57422 210.527 9.96094C210.527 10.4492 210.645 10.9082 210.879 11.3379C210.996 11.5527 211.709 12.3828 213.018 13.8281C213.896 14.7852 214.57 15.8496 215.039 17.0215C215.312 17.7246 215.498 18.7305 215.596 20.0391L224.121 13.1543C225.684 14.1895 226.836 15.2637 227.578 16.377C228.34 17.4902 228.818 18.7695 229.014 20.2148ZM215.596 21.5039V36.5039L222.979 39.5801V23.6133C222.979 21.9336 222.803 20.752 222.451 20.0684C222.1 19.3848 221.299 18.6426 220.049 17.8418L215.596 21.5039ZM229.014 21.709V36.3574L236.455 39.4922V23.2031C236.455 21.7578 236.309 20.7715 236.016 20.2441C235.742 19.6973 234.932 18.9062 233.584 17.8711L229.014 21.709ZM262.295 24.0234L269.062 27.5684V39.9023C267.422 40.0586 265.938 40.459 264.609 41.1035C263.281 41.748 261.777 42.8418 260.098 44.3848C258.652 43.5254 257.393 42.9297 256.318 42.5977C255.264 42.2656 254.141 42.0996 252.949 42.0996C251.113 42.0996 249.482 42.6562 248.057 43.7695C247.529 44.1797 247.148 44.3848 246.914 44.3848C246.699 44.3848 246.484 44.2773 246.27 44.0625C246.055 43.8477 245.947 43.6328 245.947 43.418C245.947 43.1836 246.152 42.8711 246.562 42.4805C246.797 42.2461 247.197 41.7969 247.764 41.1328L250.43 37.8223L254.209 32.8125L247.793 29.3555V18.4277C249.805 17.8027 251.377 17.1094 252.51 16.3477C253.662 15.5664 254.766 14.502 255.82 13.1543C258.32 14.209 260.332 14.9512 261.855 15.3809C262.949 15.6738 263.994 15.8203 264.99 15.8203C266.084 15.8203 266.934 15.5859 267.539 15.1172C268.145 14.6289 268.447 14.1211 268.447 13.5938C268.447 13.2422 268.252 12.8906 267.861 12.5391C267.1 11.8555 266.719 11.1914 266.719 10.5469C266.719 9.94141 266.885 9.46289 267.217 9.11133C267.549 8.74023 267.92 8.55469 268.33 8.55469C268.877 8.55469 269.365 8.80859 269.795 9.31641C270.244 9.80469 270.469 10.459 270.469 11.2793C270.469 12.1191 270.293 12.9395 269.941 13.7402C269.59 14.541 268.916 15.5762 267.92 16.8457L262.295 24.0234ZM253.711 26.0449L257.725 28.125L264.111 19.6289C262.803 20 261.67 20.1855 260.713 20.1855C258.311 20.1855 255.977 19.3848 253.711 17.7832V26.0449ZM258.75 28.7109L251.689 38.1738C252.549 37.8809 253.35 37.666 254.092 37.5293C254.834 37.3926 255.508 37.3242 256.113 37.3242C258.359 37.3242 260.693 38.0664 263.115 39.5508V31.0547L258.75 28.7109Z" fill="#444444"/>
</svg>
